<svg xmlns="http://www.w3.org/2000/svg" version="1.1" id="Calque_1" x="0px" y="0px" width="119.055px" height="119.055px" viewBox="-5.838 29.144 90.205 90.205" enable-background="new 0 0 119.055 119.055" xml:space="preserve"><polygon points="-0.024,97.39 0.231,98.014 0.231,97.18 " />
<path d="M21.312,117.349c1.022,0,1.726-0.25,2.149-0.764l0.173-0.209c3.688-4.487,11.127-12.775,19.522-17.867  C49.166,94.864,53.823,91.098,57,87.317c1.407-1.416,2.341-2.569,2.998-3.419c3.947-5.104,15.603-22.875,16.603-26.323  c0.372-1.286,0.154-2.516-0.628-3.557c-0.599-0.796-1.479-1.386-2.255-1.679c1.443-1.975,2.707-3.799,3.654-5.352  c1.11-1.82,1.227-3.79,0.32-5.404c-0.478-0.849-1.204-1.502-2.016-1.853c0.651-0.855,1.994-2.895,1.796-4.972  c-0.107-1.124-0.655-2.102-1.584-2.829c-0.665-0.521-1.428-0.785-2.269-0.785c-1.618,0-3.419,0.991-5.414,3.01  c-0.229,0.266-0.479,0.544-0.753,0.844l-0.389,0.428l-0.003-0.002c-2.369,2.549-5.944,6.138-9.527,9.642  c-0.193-0.716-0.689-1.3-1.426-1.667c-0.99-0.493-2.333-1.059-3.946-1.059c-2.112,0-4.143,0.932-6.208,2.849  c-1.342,1.244-8.23,6.507-11.541,9.037l-1.378,1.054l-4.207,3.465c-0.169,0.15-0.333,0.298-0.562,0.508l-2.755,2.711  c-4.447,4.745-6.033,8.552-7.568,12.232c-0.81,1.944-1.576,3.78-2.75,5.737c-0.764,1.274-1.683,2.636-2.733,4.047  c-0.304,0.241-0.533,0.545-0.686,0.907c-3.574,4.637-7.668,8.742-9.809,10.794l-0.581,0.553L0.231,97.18v0.834l0.124,0.302  C6.716,113.853,17.896,117.349,21.312,117.349z M3.192,98.035c0.164-0.153,0.348-0.328,0.545-0.52  c2.21-2.117,6.473-6.392,10.182-11.23l0.144-0.236l0.04-0.106l0.144-0.09l0.143-0.19c1.151-1.536,2.159-3.023,2.995-4.419  c1.27-2.116,2.106-4.125,2.917-6.068c1.516-3.638,2.949-7.074,7.098-11.494l2.659-2.61c0.151-0.139,0.305-0.277,0.521-0.469  l5.386-4.35c3.598-2.749,10.296-7.866,11.727-9.193c1.572-1.459,3.036-2.168,4.474-2.168c1.075,0,2.022,0.4,2.807,0.791  c0.065,0.033,0.097,0.058,0.104,0.058c0.229,1.019-2.395,3.946-7.8,8.702c-1.838,1.618-2.432,2.152-2.685,2.641l-0.35,0.716  l0.765,1.233l0.718-0.001c0.607,0,1.008-0.001,9.979-8.63c4.211-4.05,9.896-9.652,13.225-13.233l0.023-0.013  c0.012-0.016,0.023-0.032,0.035-0.048l0.357-0.391c0.286-0.313,0.553-0.609,0.737-0.829c1.377-1.391,2.668-2.188,3.541-2.188  c0.264,0,0.484,0.077,0.695,0.242c0.379,0.297,0.575,0.633,0.617,1.059c0.123,1.257-1.072,2.958-1.491,3.444  c-1.112,1.256-6.668,7.529-6.804,7.688c-0.841,0.983-2.757,2.939-4.976,5.205C51.038,62.18,49.746,63.989,50.247,65.427  c0.188,0.542,0.653,0.91,1.243,0.985l0.161,0.01c0.726,0,1.044-0.511,1.299-0.921c0.335-0.537,1.032-1.656,2.126-2.892  c2.408-2.717,6.164-6.695,9.798-10.542c1.771-1.876,3.493-3.699,4.976-5.289c1.562-1.673,2.67-2.938,3.403-3.774  c0.384-0.438,0.747-0.853,0.826-0.927c0.31-0.249,0.984,0.032,1.39,0.754c0.26,0.462,0.569,1.445-0.273,2.827  c-2.286,3.747-6.564,9.244-10.701,14.559c-1.354,1.739-2.695,3.464-3.957,5.112c-0.638,0.835-1.274,1.633-1.884,2.398  c-2.009,2.521-3.744,4.697-4.51,6.826l-0.615,1.712l1.817-0.003c0.705-0.001,0.705-0.001,4.302-4.63  c1.754-2.257,4.444-5.774,7.303-9.715l0.119-0.164c2.834-3.909,4.626-6.38,5.766-7.019c0.313,0.128,0.882,0.445,1.189,0.947  c0.218,0.354,0.258,0.729,0.126,1.182c-0.787,2.714-11.695,19.685-16.17,25.473c-0.618,0.798-1.497,1.884-2.826,3.218l-0.075,0.081  c-2.998,3.581-7.455,7.179-13.247,10.691c-8.719,5.288-16.38,13.816-20.17,18.429l-0.018,0.022c-0.071,0.01-0.179,0.02-0.333,0.02  c-2.373,0-12.278-2.851-18.254-16.638L3.192,98.035z" />
</svg>