<svg xmlns="http://www.w3.org/2000/svg" viewBox="0 0 32 32" fill="none" stroke="currentColor" stroke-width="2" stroke-linecap="round" stroke-linejoin="round">
	<path d="M28.36 14.65V11.38l-3.63-.59a9.64 9.64 0 0 0-1-2.41l2.12-3.03-2.16-2.16-2.98 2.14a8.94 8.94 0 0 0-2.42-1l-.63-3.63h-3.06l-.64 3.63a9.1 9.1 0 0 0-2.43 1L8.12 3.19 5.97 5.35l2.09 2.99a9.5 9.5 0 0 0-.22 2.48L4.06 11.4v3.27l3.6.64a9.6 9.6 0 0 0 1.02 2.45l-2.13 2.98 2.17 2.17 3.01-2.11a9 9 0 0 0 2.43 1l.6 3.63h3.06l.64-3.63a9.1 9.1 0 0 0 2.42-1l3 2.11 2.16-2.17-2.16-3a9.5 9.5 0 0 0 1-2.46l3.63-.62zM16 16.54a4.26 4.26 0 1 1 0-8.52 4.26 4.26 0 0 1 0 8.52zM29.54 23.36v4.92a1.23 1.23 0 0 1-1.23 1.23H3.69a1.23 1.23 0 0 1-1.23-1.23v-4.92H0v4.92a3.69 3.69 0 0 0 3.69 3.69h24.62a3.69 3.69 0 0 0 3.69-3.69v-4.92h-2.46z"/>
</svg>