<svg xmlns="http://www.w3.org/2000/svg" fill="none" stroke="currentColor"
     viewBox="0 0 32 32" stroke-width="2" stroke-linecap="round" stroke-linejoin="round">
    <!-- Left brace { -->
    <path d="M13 5
             C10 5 10 8 10 10
             C10 12 8 12 8 12
             C10 12 10 14 10 16
             C10 18 8 18 8 18
             C10 18 10 20 10 22
             C10 24 10 27 13 27" />
    <!-- Right brace } -->
    <path d="M19 5
             C22 5 22 8 22 10
             C22 12 24 12 24 12
             C22 12 22 14 22 16
             C22 18 24 18 24 18
             C22 18 22 20 22 22
             C22 24 22 27 19 27" />
    <!-- Dot -->
    <circle cx="16" cy="16" r="1.5" />
</svg>
